<svg version="1.1" id="Layer_1" xmlns="http://www.w3.org/2000/svg" xmlns:xlink="http://www.w3.org/1999/xlink" x="0px" y="0px"
	 width="100%" viewBox="0 0 64 64" enable-background="new 0 0 64 64" xml:space="preserve">
<path fill="#508BF7" opacity="1.000000" stroke="none" 
	d="
M1.000000,57.000000 
	C1.000000,41.312439 1.000000,25.624876 1.238157,9.804836 
	C3.984210,6.781572 6.492105,3.890786 9.000000,1.000000 
	C24.687561,1.000000 40.375122,1.000000 56.195114,1.238126 
	C59.218361,3.984168 62.109180,6.492085 65.000000,9.000001 
	C65.000000,24.687561 65.000000,40.375122 64.761429,56.195076 
	C62.015236,59.218307 59.507618,62.109154 57.000000,65.000000 
	C41.312439,65.000000 25.624876,65.000000 9.805031,64.761551 
	C6.781831,62.015408 3.890916,59.507702 1.000000,57.000000 
M21.029692,50.950630 
	C26.028446,54.854572 31.848263,54.583847 37.540195,53.690384 
	C40.232037,53.267841 42.709351,51.478649 45.913879,50.061836 
	C53.836544,43.540539 56.514248,34.574459 53.205154,25.647570 
	C49.977188,16.939533 41.358608,11.025898 32.408340,11.377842 
	C22.994083,11.748031 14.736379,18.232603 12.227927,27.225027 
	C9.752330,36.099667 13.033477,45.036167 21.029692,50.950630 
z"/>
<path fill="transparent" opacity="1.000000" stroke="none" 
	d="
M8.505266,1.000000 
	C6.492105,3.890786 3.984210,6.781572 1.238157,9.336180 
	C1.000000,6.417543 1.000000,3.835086 1.000000,1.000000 
	C3.333921,1.000000 5.672227,1.000000 8.505266,1.000000 
z"/>
<path fill="transparent" opacity="1.000000" stroke="none" 
	d="
M65.000000,8.505268 
	C62.109180,6.492085 59.218361,3.984168 56.663773,1.238126 
	C59.582455,1.000000 62.164913,1.000000 65.000000,1.000000 
	C65.000000,3.333921 65.000000,5.672227 65.000000,8.505268 
z"/>
<path fill="transparent" opacity="1.000000" stroke="none" 
	d="
M1.000000,57.494736 
	C3.890916,59.507702 6.781831,62.015408 9.336373,64.761551 
	C6.417543,65.000000 3.835086,65.000000 1.000000,65.000000 
	C1.000000,62.666080 1.000000,60.327774 1.000000,57.494736 
z"/>
<path fill="transparent" opacity="1.000000" stroke="none" 
	d="
M57.494736,65.000000 
	C59.507618,62.109154 62.015236,59.218307 64.761429,56.663734 
	C65.000000,59.582455 65.000000,62.164913 65.000000,65.000000 
	C62.666080,65.000000 60.327774,65.000000 57.494736,65.000000 
z"/>
<path fill="#BFD4FC" opacity="1.000000" stroke="none" 
	d="
M20.705795,50.315273 
	C13.033477,45.036167 9.752330,36.099667 12.227927,27.225027 
	C14.736379,18.232603 22.994083,11.748031 32.408340,11.377842 
	C41.358608,11.025898 49.977188,16.939533 53.205154,25.647570 
	C56.514248,34.574459 53.836544,43.540539 45.541176,49.826565 
	C45.110771,48.869133 45.053066,48.146969 45.173607,47.112034 
	C45.889278,46.163902 46.441319,45.540268 46.961895,44.891396 
	C53.208603,37.105228 52.625473,26.094557 45.625393,19.564552 
	C38.585888,12.997772 27.138763,13.068559 20.203878,19.721752 
	C13.290561,26.354254 12.848671,37.257183 19.171106,45.070629 
	C19.797182,45.844357 20.392021,46.643353 20.997761,47.793369 
	C20.898041,48.875835 20.801918,49.595554 20.705795,50.315273 
z"/>
<path fill="#ECF3FE" opacity="1.000000" stroke="none" 
	d="
M20.867744,50.632950 
	C20.801918,49.595554 20.898041,48.875835 21.401558,47.795586 
	C22.873234,47.345615 23.937517,47.256180 25.055290,47.527054 
	C29.206432,52.698257 38.346588,52.283730 41.398811,47.124737 
	C42.864712,47.196758 43.930035,47.310783 44.995358,47.424809 
	C45.053066,48.146969 45.110771,48.869133 45.226166,49.949974 
	C42.709351,51.478649 40.232037,53.267841 37.540195,53.690384 
	C31.848263,54.583847 26.028446,54.854572 20.867744,50.632950 
z"/>
<path fill="#528CF7" opacity="1.000000" stroke="none" 
	d="
M25.001801,47.166740 
	C23.937517,47.256180 22.873234,47.345615 21.405153,47.432838 
	C20.392021,46.643353 19.797182,45.844357 19.171106,45.070629 
	C12.848671,37.257183 13.290561,26.354254 20.203878,19.721752 
	C27.138763,13.068559 38.585888,12.997772 45.625393,19.564552 
	C52.625473,26.094557 53.208603,37.105228 46.961895,44.891396 
	C46.441319,45.540268 45.889278,46.163902 45.173607,47.112034 
	C43.930035,47.310783 42.864712,47.196758 40.935303,47.065678 
	C35.048077,47.087994 30.024939,47.127365 25.001801,47.166740 
M38.145706,40.651928 
	C39.088703,39.709808 40.275967,38.905994 40.908825,37.788273 
	C41.598480,36.570240 41.773960,35.061081 42.173595,33.678837 
	C40.914364,34.063190 39.574738,34.289711 38.419449,34.878143 
	C37.353203,35.421219 36.484707,36.352566 34.994190,37.538517 
	C34.994190,31.767023 35.140274,26.774265 34.907177,21.799273 
	C34.835133,20.261696 33.730740,18.772490 33.099014,17.261135 
	C32.401485,18.706478 31.175058,20.125799 31.102432,21.601892 
	C30.852646,26.678507 31.006426,31.774977 31.006426,36.565487 
	C28.277178,35.582222 25.942060,34.740952 23.606945,33.899681 
	C25.098633,36.222050 26.588802,38.545399 28.085825,40.864323 
	C28.174171,41.001175 28.317526,41.102551 28.435469,41.220249 
	C32.987865,45.763367 32.987869,45.763363 38.145706,40.651928 
z"/>
<path fill="#EEF4FE" opacity="1.000000" stroke="none" 
	d="
M25.055290,47.527050 
	C30.024939,47.127365 35.048077,47.087994 40.534721,47.107681 
	C38.346588,52.283730 29.206432,52.698257 25.055290,47.527050 
z"/>
<path fill="#FDFEFF" opacity="1.000000" stroke="none" 
	d="
M37.895134,40.901505 
	C32.987869,45.763363 32.987865,45.763367 28.435469,41.220249 
	C28.317526,41.102551 28.174171,41.001175 28.085825,40.864323 
	C26.588802,38.545399 25.098633,36.222050 23.606945,33.899681 
	C25.942060,34.740952 28.277178,35.582222 31.006426,36.565487 
	C31.006426,31.774977 30.852646,26.678507 31.102432,21.601892 
	C31.175058,20.125799 32.401485,18.706478 33.099014,17.261135 
	C33.730740,18.772490 34.835133,20.261696 34.907177,21.799273 
	C35.140274,26.774265 34.994190,31.767023 34.994190,37.538517 
	C36.484707,36.352566 37.353203,35.421219 38.419449,34.878143 
	C39.574738,34.289711 40.914364,34.063190 42.173592,33.678837 
	C41.773960,35.061081 41.598480,36.570240 40.908825,37.788273 
	C40.275967,38.905994 39.088703,39.709808 37.895134,40.901505 
z"/>
</svg>